# xmcd CD database file
#
# Track frame offsets:
#	150
#	19216
#	35428
#	56130
#	69703
#	88645
#	108236
#	124164
#	149828
#	163655
#	183476
#	205169
#
# Disc length: 3020 seconds
#
# Revision: 1
# Processed by: cddbd v1.5.2PL0 Copyright (c) Steve Scherf et al.
# Submitted via: Feurio! 1.68 - http://www.feurio.com
#
DISCID=b30bca0c
DTITLE=Mark Knopfler and Emmylou Harris - All The Road Running
DYEAR=2006
DGENRE=Country
TTITLE0=Beachcombing
TTITLE1=I dug up a diamond
TTITLE2=This is up
TTITLE3=Red staggerwing
TTITLE4=Rollin´ on
TTITLE5=Love and happiness
TTITLE6=Right now
TTITLE7=Donkey down
TTITLE8=Belle star
TTITLE9=Beyond my wildest dreams
TTITLE10=All the road running
TTITLE11=If this is goodbye
EXTD=Besitzer Torsten Staubitz
EXTT0=
EXTT1=
EXTT2=
EXTT3=
EXTT4=
EXTT5=
EXTT6=
EXTT7=
EXTT8=
EXTT9=
EXTT10=
EXTT11=
PLAYORDER=
